<!DOCTYPE svg PUBLIC "-//W3C//DTD SVG 1.1//EN" "http://www.w3.org/Graphics/SVG/1.1/DTD/svg11.dtd">
<!-- Uploaded to: SVG Repo, www.svgrepo.com, Transformed by: SVG Repo Mixer Tools -->
<svg width="800px" height="800px" viewBox="0 0 24 24" xmlns="http://www.w3.org/2000/svg" data-astro-cid-jlpqxutv="" fill="#000000">
<g id="SVGRepo_bgCarrier" stroke-width="0"/>
<g id="SVGRepo_tracerCarrier" stroke-linecap="round" stroke-linejoin="round"/>
<g id="SVGRepo_iconCarrier">
<g class="spinner-circle" data-astro-cid-jlpqxutv="">
<rect x="11" y="1" width="2" height="6" opacity="1" data-astro-cid-jlpqxutv=""/> <rect x="11" y="1" width="2" height="6" transform="rotate(36 12 12)" opacity=".1" data-astro-cid-jlpqxutv=""/> <rect x="11" y="1" width="2" height="6" transform="rotate(72 12 12)" opacity=".2" data-astro-cid-jlpqxutv=""/> <rect x="11" y="1" width="2" height="6" transform="rotate(108 12 12)" opacity=".3" data-astro-cid-jlpqxutv=""/> <rect x="11" y="1" width="2" height="6" transform="rotate(144 12 12)" opacity=".4" data-astro-cid-jlpqxutv=""/> <rect x="11" y="1" width="2" height="6" transform="rotate(180 12 12)" opacity=".5" data-astro-cid-jlpqxutv=""/> <rect x="11" y="1" width="2" height="6" transform="rotate(216 12 12)" opacity=".6" data-astro-cid-jlpqxutv=""/> <rect x="11" y="1" width="2" height="6" transform="rotate(252 12 12)" opacity=".7" data-astro-cid-jlpqxutv=""/> <rect x="11" y="1" width="2" height="6" transform="rotate(288 12 12)" opacity=".8" data-astro-cid-jlpqxutv=""/> <rect x="11" y="1" width="2" height="6" transform="rotate(324 12 12)" opacity=".9" data-astro-cid-jlpqxutv=""/> </g> </g>
</svg>